<svg width="540" height="455" viewBox="0 0 540 455" fill="none" xmlns="http://www.w3.org/2000/svg">
<g clip-path="url(#clip0_5179_41)">
<g opacity="0.5">
<path d="M255.058 384.747L322.307 384.23V377.604L257.507 377.886" stroke="white" stroke-width="2" stroke-miterlimit="10"/>
<path d="M322.308 301.525H273.142L271.824 307.446L322.308 307.164V301.525Z" stroke="white" stroke-width="2" stroke-miterlimit="10"/>
<path d="M322.307 335.218L371.332 335.03V229.3C335.965 229.253 319.246 229.253 275.355 229.3C251.903 229.3 230.711 243.256 221.527 264.825L140.574 454.529H371.332V345.744L324.945 345.65L262.64 345.838L265.466 335.453L322.307 335.218ZM273.142 301.525H322.307V307.164L271.823 307.446L273.142 301.525ZM322.307 377.604V384.23L255.058 384.747L257.507 377.839L322.307 377.604Z" stroke="white" stroke-width="2" stroke-miterlimit="10"/>
</g>
<path opacity="0.5" d="M0 229.3H145.472L114.06 300.961H72.7593V307.211H118.11L153.101 229.3H230.334L149.051 417.782C139.491 439.962 117.592 454.341 93.3862 454.388C87.0757 454.388 80.3885 454.435 73.6541 454.435C43.5614 454.623 0 454.435 0 454.435V384.277H85.192L87.6408 377.369H55.5702C24.8653 377.369 0 352.558 0 321.92V229.3Z" stroke="white" stroke-width="2" stroke-miterlimit="10"/>
<g opacity="0.5">
<path d="M500.838 224.647L535.311 141.473H526.504L460.573 295.04H376.606L467.167 100.214C475.738 81.7467 494.339 69.9049 514.731 69.9049H593.236L574.492 113.372L582.074 113.419L600.959 69.9049L684.267 69.8579V295.04H617.442V141.332H608.918L578.024 224.882L500.838 224.647Z" stroke="white" stroke-width="2" stroke-miterlimit="10"/>
</g>
</g>
<defs>
<clipPath id="clip0_5179_41">
<rect width="540" height="455" fill="white"/>
</clipPath>
</defs>
</svg>
