<svg width="371" height="455" viewBox="0 0 371 455" fill="none" xmlns="http://www.w3.org/2000/svg">
<path d="M186.537 154.789L221.009 71.6148H212.203L146.272 225.183H62.3043L152.912 30.3564C161.483 11.8888 180.085 0.0469913 200.476 0.0469913H278.981L260.238 43.514L267.82 43.561L286.704 0.0469913L370.013 0V225.183H303.187V71.4738H294.616L263.723 155.024L186.537 154.789Z" fill="black"/>
<path d="M0.0470963 229.741H145.519L114.107 301.402H72.8064V307.652H118.157L153.195 229.694H230.428L149.051 418.223C139.491 440.403 117.592 454.782 93.3862 454.829C87.0757 454.829 80.3884 454.876 73.6541 454.876C43.5614 455.064 0 454.876 0 454.876V384.765H85.1919L87.6408 377.857H55.5702C24.8653 377.857 0 353.046 0 322.407L0.0470963 229.741Z" fill="black"/>
<path d="M320.941 335.612L369.966 335.424V229.741C334.598 229.694 317.88 229.694 273.989 229.741C250.537 229.741 229.345 243.697 220.162 265.266L139.255 454.97H370.013V346.138L323.626 346.044L261.321 346.279L264.147 335.894L320.941 335.612ZM271.823 301.966H320.988V307.605L270.504 307.887L271.823 301.966ZM320.941 378.045V384.671H250.866L252.656 378.139L320.941 378.045Z" fill="black"/>
</svg>
